<svg xmlns="http://www.w3.org/2000/svg" viewBox="0 0 16 16" fill="none">
  <path d="M13.3333 1.33333H2.66667C1.93029 1.33333 1.33333 1.93028 1.33333 2.66666V5.33333C1.33333 6.06971 1.93029 6.66666 2.66667 6.66666H13.3333C14.0697 6.66666 14.6667 6.06971 14.6667 5.33333V2.66666C14.6667 1.93028 14.0697 1.33333 13.3333 1.33333Z" stroke="currentColor" stroke-width="1.33333" stroke-linecap="round" stroke-linejoin="round"/>
  <path d="M13.3333 9.33333H2.66667C1.93029 9.33333 1.33333 9.93028 1.33333 10.6667V13.3333C1.33333 14.0697 1.93029 14.6667 2.66667 14.6667H13.3333C14.0697 14.6667 14.6667 14.0697 14.6667 13.3333V10.6667C14.6667 9.93028 14.0697 9.33333 13.3333 9.33333Z" stroke="currentColor" stroke-width="1.33333" stroke-linecap="round" stroke-linejoin="round"/>
  <path d="M4 4H4.00667" stroke="currentColor" stroke-width="1.33333" stroke-linecap="round" stroke-linejoin="round"/>
  <path d="M4 12H4.00667" stroke="currentColor" stroke-width="1.33333" stroke-linecap="round" stroke-linejoin="round"/>
</svg>
