<svg xmlns="http://www.w3.org/2000/svg" viewBox="0 0 16 16" fill="none">
  <path d="M6.44733 2.75732C6.48406 2.37088 6.66355 2.01202 6.95073 1.75084C7.23791 1.48967 7.61215 1.34494 8.00033 1.34494C8.38851 1.34494 8.76275 1.48967 9.04993 1.75084C9.33711 2.01202 9.5166 2.37088 9.55333 2.75732C9.57541 3.00696 9.65731 3.2476 9.79209 3.45888C9.92687 3.67016 10.1106 3.84586 10.3276 3.97111C10.5447 4.09635 10.7888 4.16746 11.0391 4.1784C11.2895 4.18935 11.5388 4.13981 11.766 4.03399C12.1187 3.87384 12.5184 3.85067 12.8873 3.96898C13.2562 4.08729 13.5679 4.33862 13.7617 4.67406C13.9555 5.00949 14.0175 5.40504 13.9358 5.7837C13.854 6.16237 13.6343 6.49707 13.3193 6.72266C13.1143 6.86655 12.9468 7.05773 12.8313 7.28001C12.7157 7.50228 12.6554 7.74913 12.6554 7.99966C12.6554 8.25018 12.7157 8.49703 12.8313 8.71931C12.9468 8.94158 13.1143 9.13276 13.3193 9.27666C13.6343 9.50224 13.854 9.83694 13.9358 10.2156C14.0175 10.5943 13.9555 10.9898 13.7617 11.3253C13.5679 11.6607 13.2562 11.912 12.8873 12.0303C12.5184 12.1486 12.1187 12.1255 11.766 11.9653C11.5388 11.8595 11.2895 11.81 11.0391 11.8209C10.7888 11.8319 10.5447 11.903 10.3276 12.0282C10.1106 12.1534 9.92687 12.3291 9.79209 12.5404C9.65731 12.7517 9.57541 12.9924 9.55333 13.242C9.5166 13.6284 9.33711 13.9873 9.04993 14.2485C8.76275 14.5096 8.38851 14.6544 8.00033 14.6544C7.61215 14.6544 7.23791 14.5096 6.95073 14.2485C6.66355 13.9873 6.48406 13.6284 6.44733 13.242C6.42529 12.9923 6.3434 12.7515 6.20858 12.5402C6.07375 12.3288 5.88998 12.1531 5.67282 12.0278C5.45566 11.9025 5.21151 11.8315 4.96105 11.8206C4.71059 11.8097 4.4612 11.8594 4.234 11.9653C3.88126 12.1255 3.48155 12.1486 3.11267 12.0303C2.74378 11.912 2.43211 11.6607 2.23832 11.3253C2.04453 10.9898 1.98248 10.5943 2.06424 10.2156C2.146 9.83694 2.36573 9.50224 2.68067 9.27666C2.88575 9.13276 3.05315 8.94158 3.16872 8.71931C3.2843 8.49703 3.34463 8.25018 3.34463 7.99966C3.34463 7.74913 3.2843 7.50228 3.16872 7.28001C3.05315 7.05773 2.88575 6.86655 2.68067 6.72266C2.36618 6.49695 2.14683 6.16239 2.06527 5.78398C1.9837 5.40557 2.04574 5.01035 2.23932 4.67513C2.43291 4.33991 2.74421 4.08864 3.11273 3.97015C3.48124 3.85166 3.88065 3.87441 4.23333 4.03399C4.4605 4.13981 4.70983 4.18935 4.9602 4.1784C5.21057 4.16746 5.45462 4.09635 5.67169 3.97111C5.88876 3.84586 6.07246 3.67016 6.20724 3.45888C6.34202 3.2476 6.42392 3.00696 6.446 2.75732" stroke="currentColor" stroke-width="1.33333" stroke-linecap="round" stroke-linejoin="round"/>
  <path d="M8 10C9.10457 10 10 9.10457 10 8C10 6.89543 9.10457 6 8 6C6.89543 6 6 6.89543 6 8C6 9.10457 6.89543 10 8 10Z" stroke="currentColor" stroke-width="1.33333" stroke-linecap="round" stroke-linejoin="round"/>
</svg>
