<svg xmlns="http://www.w3.org/2000/svg" width="100%" height="100%" viewBox="0 0 512 512" fill-rule="evenodd" stroke-linecap="square" stroke-miterlimit="1.5" xmlns:v="https://vecta.io/nano"><style><![CDATA[.B{fill:#131b50}.C{fill:#fff}.D{fill-rule:nonzero}]]></style><path d="M254 412.3c-121.8 0-165 4.2-183.4-4.4C11.2 380.6 8 327.7 13 298.7c1.7-10 15-56 62.5-63.5 0 0-3-42.3 29-61.6 27.3-16.3 54.5-7.7 54.5-7.7s36.7-73 117-66.8c78.6 6.2 105.3 95.6 105.3 95.6a85 85 0 0 1 37 10c31.2 17.3 26.8 54 26.8 54s50.3 16.5 55 64.8c1.8 19-10.5 83-71 88.5l-175.2.3z" fill="url(#A)" stroke="#000a4e" stroke-width="15.9"/><use href="#B" class="B"/><g class="C"><ellipse cx="379.6" cy="260.7" rx="2.7" ry="2.6"/><ellipse cx="133" cy="260.7" rx="2.7" ry="2.6"/></g><path d="M388.8 279.4v10c0 2.8-2.3 5-5 5H128.3c-2.8 0-5-2.3-5-5v-10c0-2.8 2.3-5 5-5h255.4c2.8 0 5 2.3 5 5z" class="B"/><g class="C"><ellipse cx="379.2" cy="284.3" rx="2.7" ry="2.6"/><ellipse cx="132.5" cy="284.3" rx="2.7" ry="2.6"/></g><use href="#B" y="72.1" class="B"/><g class="C"><ellipse cx="379.6" cy="332.8" rx="2.7" ry="2.6"/><ellipse cx="133" cy="332.8" rx="2.7" ry="2.6"/></g><use href="#B" y="48" class="B"/><g class="C"><ellipse cx="379.6" cy="308.7" rx="2.7" ry="2.6"/><ellipse cx="133" cy="308.7" rx="2.7" ry="2.6"/><path d="M224.4 230.6l.1-1.4c0-3 1.4-6 3.8-8 1.6-1.4 3.6-2.3 5.8-2.5-.1-2.3.1-4.7.7-7a26 26 0 0 1 12.1-16.1c4.8-3 11-1.8 14.3 2.7 2.2 3 2.7 7.8 2.8 9.7.3.8 1 1 1.7 1.6 1.5 1.2 3 2.2 4.6 3.4a33 33 0 0 1 10 11c1.6.2 3.2.7 4.6 1.6 9 5.6 12.4 14 14 23.3a30 30 0 0 1-13.8 32.3c-3 2.2-7 2.7-10.5 1.3-3-1.2-5.3-3.7-6.3-6.7-2.7.1-5.4-.8-7.5-2.7l.4.3-2.3-2-.5-1-.5.2c-1.2.6-2.5 1-3.7 1-1 2.6-3 4.7-5.7 5.8-2 1-4.3 1-6.4.7-.8 1.4-2 2.6-3.4 3.4-3.3 2-7.4 2.3-10.8.5-18.7-9.7-18.4-30.5-10.3-43.6 1.4-2.3 3.4-4.4 5.3-6.4l1.3-1.5zm28.8-21.2c-.3-1.7.5-3.2-.7-4.8-3.8 2.4-6.2 5.5-7.3 9.7-1.2 4.5.4 8.4 2 12.3 3 6.5.7 13.5-4.7 15.6-4.5-12.5-4.5-12.5-7.4-13-.1 5.3-.4 6-4.4 10.2-1.4 1.4-3 3-4 4.6-5.2 8.4-6 22 6 28.2-.2-5.4-1.4-11 3.2-16 2 4.7 3.4 9 8 11.2 1.5-4.5 2.5-9 5.4-12.3 3 1 1.7 4 3.6 5.6 3-1.5 3.7-4.2 3.5-7-.1-2-1-4.2-1-6.3-.4-3 .2-5.5 2.7-7.6 1 2.4 1 4.8 2.7 6.6 4.6 5 7 11 6.3 18 0 .1.3.3.7.6 4-1 4.7-5.3 7.3-8 5 4.4 2.4 10.2 3.3 15.4 8.3-6 11.2-12.8 9.6-21.7-1-6.3-3-12.2-9-16-2 9-3.7 10.7-8.4 10.7-.4-1 .1-2 .4-3 2.6-9.6.6-15-7.4-21L259 218c-2.7-2-5-4.6-5.7-8.4z"/></g><path d="M253.2 209.5c.7 4 3 6.3 5.7 8.4 1.6 1.3 3.2 2.4 4.8 3.6 8 6 10 11.4 7.4 21-.3 1-.8 2-.4 3 4.7 0 6.3-2 8.4-10.7 6 3.8 8 9.7 9 16 1.6 9-1.3 15.6-9.6 21.7-4.8 13.4-40.3 16.3-45.7.1-12-6.2-11.3-19.8-6-28.2 1-1.7 2.5-3 4-4.6 4-4.2 4.3-5 4.4-10.2 3 .4 3 .4 7.4 13 5.4-2.2 7.5-9 4.7-15.6-1.7-4-3.3-8-2-12.3 1-4.2 3.5-7.3 7.3-9.7 1.2 1.6.4 3.2.7 4.8z" fill="#f17d22" class="D"/><path d="M253.2 209.5c.7 4 3 6.3 5.7 8.4 1.6 1.3 3.2 2.4 4.8 3.6 8 6 10 11.4 7.4 21-.3 1-.8 2-.4 3 4.7 0 6.3-2 8.4-10.7 6 3.8 8 9.7 9 16 1.6 9-1.3 15.6-9.6 21.7-4.8 13.4-40.3 16.3-45.7.1-12-6.2-11.3-19.8-6-28.2 1-1.7 2.5-3 4-4.6 4-4.2 4.3-5 4.4-10.2 3 .4 3 .4 7.4 13 5.4-2.2 7.5-9 4.7-15.6-1.7-4-3.3-8-2-12.3 1-4.2 3.5-7.3 7.3-9.7 1.2 1.6.4 3.2.7 4.8zm24.6 45.5a19 19 0 0 1-7.1 1.2c-4.4 0-8.3-2.7-10-6.8-1.4-3.5-1-6.6 0-9.8.6-2.2 1-4 .5-5.4-.3-1-1-1.6-1.7-2.3.2 9.2-5 17.3-12.8 20.5-2.7 1-5.8 1-8.5-.2-1-.4-1.7-1-2.5-1.5-2 3.8-3 9.5 2.2 12.2 2.5 1.3 4.4 3.5 5.3 6.2.4 1 1.6 1.7 2.7 2.2 2.8 1.2 6.2 1.6 9.6 1.5 3.6-.1 7.2-1 10-2.2 1.2-.5 2.5-.8 2.8-1.8.7-2 2-3.8 3.8-5 3.5-2.6 5.4-5.2 5.5-8.6z" fill="#ec373c"/><g class="C"><path d="M233 272.4c2.2 17.4 38.5 14.7 45.7-.1-1-5.2 1.6-11-3.3-15.4-2.6 2.6-3.3 7-7.3 8-.3-.3-.7-.5-.7-.6.6-7-1.7-12.8-6.3-18-1.5-1.7-1.6-4.2-2.7-6.6-2.6 2-3 4.7-2.7 7.6.3 2 1 4.2 1 6.3.2 3-.5 5.7-3.5 7-2-1.5-.6-4.6-3.6-5.6-3 3.4-4 7.7-5.4 12.3-4.7-2-6-6.5-8-11.2-4.7 5-3.5 10.7-3.2 16z" class="D"/><path d="M233 272.4c-.2-5.4-1.4-11 3.2-16 2 4.7 3.4 9 8 11.2 1.5-4.5 2.5-9 5.4-12.3 3 1 1.7 4 3.6 5.6 3-1.5 3.7-4.2 3.5-7-.1-2-1-4.2-1-6.3-.4-3 .2-5.5 2.7-7.6 1 2.4 1 4.8 2.7 6.6 4.6 5 7 11 6.3 18 0 .1.3.3.7.6 4-1 4.7-5.3 7.3-8 5 4.4 2.4 10.2 3.3 15.4-7.2 14.8-43.4 17.5-45.7.1zm27.6.2l-1.5-1.4-.5-1-.5.2c-1.2.6-2.5 1-3.7 1-.3.7-.7 1.4-1 2 1.6 0 3.3-.2 5-.5l2.4-.5z"/></g><path d="M327.2 253.8c-9-3.2-18-3-27-.5-1.2-3.4-.3-5.7 2.7-6.8 8.4-3.2 16.8-2.6 25 .7 3 1.2 3.5 4 3.4 6.8-1.4 1.6-2.6.3-4-.1z" class="B D"/><path d="M323.6 264c-7-2.4-13.6-2-20.4-.2-5.5 1.5-11.2-1.4-13-6.8-1.7-4.8-1.3-8.8-.1-12 1.5-3.7 4.3-6.8 9-8.6a44 44 0 0 1 32.8.7c8 3.2 10.6 9.8 10.2 17.4-.1 2.4-1 4.7-2.7 6.5-1 1-2 1.8-2.8 2.4l-4 1.7c-2.8.6-9-1-9-1l.4.1c-.2-.1-.5-.1-.7-.2zm3.6-10.2c1.6.4 2.8 1.7 4 .1.2-2.8-.4-5.6-3.4-6.8-8.2-3.2-16.6-4-25-.7-3 1-4 3.4-2.7 6.8 9-2.5 17.8-2.8 27 .5z" class="C"/><path d="M201.8 244.6c3 .3 5.6.8 8 2 2.3 1.2 3 3.3 2 6.4-10.2-2-20.4-3-30 1.8-1.4-4.8-.2-7 4.3-8.8 5-2 10.2-1.5 15.8-1.5z" class="B D"/><path d="M203 233.8a31 31 0 0 1 12 3.3c3 1.6 5 3.8 6.4 6.4 1.7 3.2 2.4 7.3 1 12.4-1.5 5.4-7 8.8-12.5 7.8-8-1.5-15.8-2.7-23.3 1-3 1.4-6.2 1.5-9 .1s-5-3.8-6-7c-1.7-5.8-1-10 .7-13.4 1.7-3.4 4.7-6.4 10-8.5 6.3-2.4 12.8-2.3 19.8-2.2.3 0 .6 0 1 .1zm-1 10.8c-5.6-.1-10.8-.5-15.8 1.5-4.5 1.7-5.7 4-4.3 8.8 9.7-4.7 20-3.8 30-1.8 1-3 .2-5.2-2-6.4-2.3-1.2-5-1.7-8-2z" class="C"/><path d="M287.6 266c9.6-12.7 22.5-14 36.2-11 13.5 3.2 20 13.7 22.8 26.3L362 361a22 22 0 0 1-11.9 22.9c-8 3.8-16 2-22.7-5.4-8-8.7-14.7-18.4-21.5-28-2.4-3.4-4.2-4-8-2-8.8 4.7-18.2 2.8-25-4.6-1.8-2-3.6-3-6.3-3h-21c-2 0-3.7.5-5.3 2-9.3 9.3-16.8 10.3-28.3 3.8-.4-.2-.8-.3-1.8-.7l-11.6 15.7-12 15.6c-6.6 8-15.4 10.5-23.7 7-8.2-3.6-13.5-13-12-22.7l13.5-72c1.8-10 4.4-19.4 11.8-26.8 12-12.2 35.6-12.3 46.6 1 5.3 6.3 10.8 8.3 18.6 8h35.3c4.7.1 8.4-1.4 11.2-5.5" stroke="#fff" stroke-width="10.8" stroke-linecap="round" stroke-linejoin="round" stroke-miterlimit="2" class="B D"/><g class="C"><circle cx="299.2" cy="293.2" r="6.5"/><circle cx="329.6" cy="293.2" r="6.5"/><circle cx="314.5" cy="308" r="6.5"/><circle cx="314.5" cy="278" r="6.5"/><use href="#C"/><use href="#C" x="-22.7"/><path d="M262.8 304.2h0c0 1-1 2-2 2H252c-1 0-2-1-2-2h0c0-1 1-2 2-2h8.8c1 0 2 1 2 2zm-65.8-28c-3 .1-5.8-.5-5.7 5 .2 8-.6 7.7-7.8 7.8-2.6 0-6 .2-6 5.2 0 6 4 5.5 5 5.5 7.4-.1 8.7.4 8.7 5 0 6.4-.3 8 5.2 8 6 0 4.8-3.2 5-5.8.4-7.8 1-6.8 7.3-7 4.3 0 6.4 0 6.4-5.7 0-5.5-3.3-5-6.3-5-7.7-.2-6.7-.8-6.8-8.3 0-3.4-1-4.5-5-4.5z"/><ellipse cx="224.1" cy="328.4" rx="14.3" ry="14.3"/><ellipse cx="288.3" cy="328.4" rx="14.3" ry="14.3"/></g><g class="B"><ellipse cx="224.1" cy="328.4" rx="9.6" ry="9.7"/><ellipse cx="288.3" cy="328.4" rx="9.6" ry="9.7"/></g><defs><linearGradient id="A" x1="11.5" y1="256" x2="500.5" y2="256" gradientUnits="userSpaceOnUse"><stop offset="0" stop-color="#e2e8f0"/><stop offset=".5" stop-color="#c2d4f4"/><stop offset="1" stop-color="#6498ff"/></linearGradient><path id="B" d="M389.2 255.7v10c0 2.8-2.3 5-5 5H128.7c-2.8 0-5-2.3-5-5v-10c0-2.8 2.3-5 5-5H384c2.8 0 5 2.3 5 5z"/><path id="C" d="M272.5 292h0c0 1.5-1.2 2.6-2.6 2.6h-4.5c-1.5 0-2.6-1.2-2.6-2.6h0c0-1.5 1.2-2.6 2.6-2.6h4.5c1.5 0 2.6 1.2 2.6 2.6z"/></defs></svg>